<svg width="212" height="28" viewBox="0 0 212 28" fill="none" xmlns="http://www.w3.org/2000/svg">
<path d="M18.44 21V8.4H21.914L27.71 16.41L26.882 16.158C26.822 15.678 26.768 15.258 26.72 14.898C26.684 14.538 26.648 14.208 26.612 13.908C26.588 13.596 26.564 13.29 26.54 12.99C26.528 12.69 26.522 12.36 26.522 12C26.522 11.64 26.522 11.22 26.522 10.74V8.4H30.266V21H26.756L20.366 12.18L21.824 12.612C21.884 13.056 21.932 13.446 21.968 13.782C22.016 14.106 22.052 14.406 22.076 14.682C22.1 14.958 22.118 15.234 22.13 15.51C22.154 15.774 22.166 16.074 22.166 16.41C22.178 16.734 22.184 17.118 22.184 17.562V21H18.44ZM31.4969 21L36.5549 8.4H39.6149L44.6369 21H40.7849L38.7689 15.492C38.6369 15.12 38.5229 14.802 38.4269 14.538C38.3309 14.274 38.2469 14.028 38.1749 13.8C38.1029 13.56 38.0309 13.308 37.9589 13.044C37.8869 12.768 37.8149 12.444 37.7429 12.072H38.3549C38.2829 12.444 38.2109 12.768 38.1389 13.044C38.0669 13.308 37.9889 13.56 37.9049 13.8C37.8329 14.028 37.7429 14.274 37.6349 14.538C37.5389 14.802 37.4249 15.12 37.2929 15.492L35.2769 21H31.4969ZM34.0169 19.128L35.1509 16.482H41.0009L42.0269 19.128H34.0169ZM51.5291 21.18C50.4491 21.18 49.4891 21.018 48.6491 20.694C47.8211 20.37 47.1191 19.914 46.5431 19.326C45.9671 18.738 45.5291 18.042 45.2291 17.238C44.9411 16.434 44.7971 15.558 44.7971 14.61C44.7971 13.65 44.9591 12.774 45.2831 11.982C45.6191 11.178 46.0991 10.482 46.7231 9.894C47.3471 9.306 48.0851 8.85 48.9371 8.526C49.8011 8.202 50.7611 8.04 51.8171 8.04C52.5491 8.04 53.2271 8.13 53.8511 8.31C54.4871 8.49 55.0571 8.736 55.5611 9.048C56.0771 9.348 56.5211 9.69 56.8931 10.074L54.5891 12.522C54.3491 12.294 54.0911 12.096 53.8151 11.928C53.5391 11.748 53.2331 11.61 52.8971 11.514C52.5611 11.406 52.1831 11.352 51.7631 11.352C51.3311 11.352 50.9351 11.436 50.5751 11.604C50.2151 11.76 49.9031 11.982 49.6391 12.27C49.3751 12.558 49.1651 12.906 49.0091 13.314C48.8651 13.71 48.7931 14.142 48.7931 14.61C48.7931 15.078 48.8711 15.516 49.0271 15.924C49.1831 16.32 49.3991 16.662 49.6751 16.95C49.9511 17.238 50.2811 17.466 50.6651 17.634C51.0491 17.79 51.4691 17.868 51.9251 17.868C52.2371 17.868 52.5191 17.82 52.7711 17.724C53.0351 17.616 53.2571 17.478 53.4371 17.31C53.6291 17.13 53.7791 16.92 53.8871 16.68C53.9951 16.428 54.0491 16.158 54.0491 15.87V15.348L54.5531 16.212H51.3491V13.476H57.5411C57.5531 13.608 57.5651 13.824 57.5771 14.124C57.6011 14.424 57.6131 14.724 57.6131 15.024C57.6251 15.312 57.6311 15.51 57.6311 15.618C57.6311 16.422 57.4811 17.166 57.1811 17.85C56.8811 18.534 56.4551 19.122 55.9031 19.614C55.3631 20.106 54.7211 20.49 53.9771 20.766C53.2331 21.042 52.4171 21.18 51.5291 21.18ZM59.9345 21V8.4H69.3485V11.55H63.6605V17.85H69.6725V21H59.9345ZM61.7885 16.104V13.152H68.6825V16.104H61.7885ZM72.1019 21V8.4H77.8979C78.8099 8.4 79.5779 8.526 80.2019 8.778C80.8379 9.03 81.3179 9.384 81.6419 9.84C81.9779 10.296 82.1459 10.83 82.1459 11.442C82.1459 12.198 81.9719 12.822 81.6239 13.314C81.2879 13.806 80.7899 14.136 80.1299 14.304L80.0759 13.962C80.6279 14.094 81.1079 14.31 81.5159 14.61C81.9239 14.898 82.2419 15.252 82.4699 15.672C82.6979 16.092 82.8119 16.572 82.8119 17.112C82.8119 17.772 82.6919 18.348 82.4519 18.84C82.2119 19.32 81.8699 19.722 81.4259 20.046C80.9939 20.37 80.4899 20.61 79.9139 20.766C79.3499 20.922 78.7379 21 78.0779 21H72.1019ZM75.7019 17.94H77.9699C78.1979 17.94 78.3899 17.904 78.5459 17.832C78.7019 17.748 78.8219 17.628 78.9059 17.472C78.9899 17.304 79.0319 17.106 79.0319 16.878C79.0319 16.674 78.9839 16.506 78.8879 16.374C78.8039 16.23 78.6779 16.122 78.5099 16.05C78.3419 15.966 78.1319 15.924 77.8799 15.924H75.7019V17.94ZM75.7019 13.332H77.2319C77.5079 13.332 77.7299 13.296 77.8979 13.224C78.0779 13.152 78.2039 13.05 78.2759 12.918C78.3599 12.774 78.4019 12.6 78.4019 12.396C78.4019 12.12 78.3059 11.898 78.1139 11.73C77.9339 11.55 77.6279 11.46 77.1959 11.46H75.7019V13.332ZM85.1131 21V8.4H94.5271V11.55H88.8391V17.85H94.8511V21H85.1131ZM86.9671 16.104V13.152H93.8611V16.104H86.9671ZM103.293 21.18C102.213 21.18 101.253 21.018 100.413 20.694C99.5846 20.37 98.8826 19.914 98.3066 19.326C97.7306 18.738 97.2926 18.042 96.9926 17.238C96.7046 16.434 96.5606 15.558 96.5606 14.61C96.5606 13.65 96.7226 12.774 97.0466 11.982C97.3826 11.178 97.8626 10.482 98.4866 9.894C99.1106 9.306 99.8486 8.85 100.701 8.526C101.565 8.202 102.525 8.04 103.581 8.04C104.313 8.04 104.991 8.13 105.615 8.31C106.251 8.49 106.821 8.736 107.325 9.048C107.841 9.348 108.285 9.69 108.657 10.074L106.353 12.522C106.113 12.294 105.855 12.096 105.579 11.928C105.303 11.748 104.997 11.61 104.661 11.514C104.325 11.406 103.947 11.352 103.527 11.352C103.095 11.352 102.699 11.436 102.339 11.604C101.979 11.76 101.667 11.982 101.403 12.27C101.139 12.558 100.929 12.906 100.773 13.314C100.629 13.71 100.557 14.142 100.557 14.61C100.557 15.078 100.635 15.516 100.791 15.924C100.947 16.32 101.163 16.662 101.439 16.95C101.715 17.238 102.045 17.466 102.429 17.634C102.813 17.79 103.233 17.868 103.689 17.868C104.001 17.868 104.283 17.82 104.535 17.724C104.799 17.616 105.021 17.478 105.201 17.31C105.393 17.13 105.543 16.92 105.651 16.68C105.759 16.428 105.813 16.158 105.813 15.87V15.348L106.317 16.212H103.113V13.476H109.305C109.317 13.608 109.329 13.824 109.341 14.124C109.365 14.424 109.377 14.724 109.377 15.024C109.389 15.312 109.395 15.51 109.395 15.618C109.395 16.422 109.245 17.166 108.945 17.85C108.645 18.534 108.219 19.122 107.667 19.614C107.127 20.106 106.485 20.49 105.741 20.766C104.997 21.042 104.181 21.18 103.293 21.18ZM117.314 21.108C116.222 21.108 115.25 20.898 114.398 20.478C113.558 20.046 112.898 19.458 112.418 18.714C111.938 17.97 111.698 17.118 111.698 16.158V8.4H115.622V15.996C115.622 16.344 115.694 16.656 115.838 16.932C115.982 17.196 116.18 17.406 116.432 17.562C116.696 17.718 116.99 17.796 117.314 17.796C117.662 17.796 117.968 17.718 118.232 17.562C118.496 17.406 118.706 17.196 118.862 16.932C119.018 16.656 119.096 16.344 119.096 15.996V8.4H122.93V16.158C122.93 17.118 122.69 17.97 122.21 18.714C121.73 19.458 121.064 20.046 120.212 20.478C119.372 20.898 118.406 21.108 117.314 21.108ZM125.867 21V17.85H128.081V11.55H125.867V8.4H134.183V11.55H131.969V17.85H134.183V21H125.867ZM137.123 21V8.4H142.667C143.615 8.4 144.485 8.556 145.277 8.868C146.069 9.18 146.759 9.618 147.347 10.182C147.935 10.734 148.385 11.394 148.697 12.162C149.021 12.93 149.183 13.776 149.183 14.7C149.183 15.612 149.021 16.458 148.697 17.238C148.385 18.006 147.935 18.672 147.347 19.236C146.759 19.788 146.069 20.22 145.277 20.532C144.485 20.844 143.615 21 142.667 21H137.123ZM141.011 18.606L140.345 17.688H142.577C142.973 17.688 143.333 17.616 143.657 17.472C143.981 17.316 144.263 17.106 144.503 16.842C144.743 16.578 144.929 16.266 145.061 15.906C145.193 15.534 145.259 15.132 145.259 14.7C145.259 14.268 145.193 13.872 145.061 13.512C144.929 13.14 144.743 12.822 144.503 12.558C144.263 12.294 143.981 12.09 143.657 11.946C143.333 11.79 142.973 11.712 142.577 11.712H140.291L141.011 10.83V18.606ZM151.487 21V8.4H160.901V11.55H155.213V17.85H161.225V21H151.487ZM153.341 16.104V13.152H160.235V16.104H153.341ZM168.065 21.18C167.117 21.18 166.277 21.078 165.545 20.874C164.825 20.658 164.189 20.358 163.637 19.974C163.097 19.59 162.611 19.14 162.179 18.624L164.429 16.104C165.029 16.872 165.653 17.382 166.301 17.634C166.961 17.874 167.579 17.994 168.155 17.994C168.383 17.994 168.587 17.976 168.767 17.94C168.947 17.892 169.085 17.82 169.181 17.724C169.277 17.628 169.325 17.496 169.325 17.328C169.325 17.172 169.271 17.04 169.163 16.932C169.067 16.824 168.935 16.734 168.767 16.662C168.599 16.578 168.413 16.512 168.209 16.464C168.017 16.404 167.825 16.356 167.633 16.32C167.453 16.284 167.291 16.248 167.147 16.212C166.427 16.044 165.797 15.84 165.257 15.6C164.717 15.36 164.267 15.072 163.907 14.736C163.547 14.4 163.277 14.016 163.097 13.584C162.929 13.152 162.845 12.666 162.845 12.126C162.845 11.514 162.983 10.956 163.259 10.452C163.547 9.948 163.925 9.516 164.393 9.156C164.873 8.796 165.413 8.52 166.013 8.328C166.625 8.136 167.255 8.04 167.903 8.04C168.851 8.04 169.643 8.13 170.279 8.31C170.915 8.478 171.449 8.724 171.881 9.048C172.313 9.372 172.685 9.75 172.997 10.182L170.729 12.36C170.465 12.108 170.189 11.904 169.901 11.748C169.613 11.58 169.313 11.46 169.001 11.388C168.701 11.304 168.401 11.262 168.101 11.262C167.825 11.262 167.591 11.286 167.399 11.334C167.207 11.37 167.057 11.436 166.949 11.532C166.841 11.616 166.787 11.736 166.787 11.892C166.787 12.048 166.853 12.18 166.985 12.288C167.129 12.384 167.303 12.468 167.507 12.54C167.723 12.612 167.933 12.672 168.137 12.72C168.353 12.756 168.533 12.786 168.677 12.81C169.337 12.93 169.943 13.098 170.495 13.314C171.047 13.518 171.527 13.782 171.935 14.106C172.355 14.418 172.673 14.814 172.889 15.294C173.117 15.762 173.231 16.32 173.231 16.968C173.231 17.892 172.997 18.666 172.529 19.29C172.073 19.914 171.455 20.388 170.675 20.712C169.895 21.024 169.025 21.18 168.065 21.18ZM176.392 21.198C175.828 21.198 175.39 21.042 175.078 20.73C174.766 20.418 174.61 19.974 174.61 19.398C174.61 18.87 174.772 18.438 175.096 18.102C175.432 17.766 175.864 17.598 176.392 17.598C176.956 17.598 177.394 17.754 177.706 18.066C178.018 18.378 178.174 18.822 178.174 19.398C178.174 19.926 178.006 20.358 177.67 20.694C177.346 21.03 176.92 21.198 176.392 21.198ZM179.638 24.942L178.252 22.116C178.864 22.116 179.326 22.05 179.638 21.918C179.962 21.798 180.178 21.564 180.286 21.216C180.406 20.88 180.466 20.382 180.466 19.722V11.37H184.12V20.586C184.12 21.654 183.952 22.506 183.616 23.142C183.292 23.778 182.8 24.234 182.14 24.51C181.48 24.798 180.646 24.942 179.638 24.942ZM182.338 9.624C181.69 9.624 181.18 9.474 180.808 9.174C180.448 8.874 180.268 8.448 180.268 7.896C180.268 7.392 180.454 6.978 180.826 6.654C181.198 6.33 181.702 6.168 182.338 6.168C182.986 6.168 183.49 6.318 183.85 6.618C184.222 6.918 184.408 7.344 184.408 7.896C184.408 8.4 184.222 8.814 183.85 9.138C183.478 9.462 182.974 9.624 182.338 9.624ZM186.794 21V11.37H190.178L190.394 14.574L189.584 14.07C189.74 13.518 189.986 13.026 190.322 12.594C190.658 12.15 191.06 11.802 191.528 11.55C192.008 11.298 192.518 11.172 193.058 11.172C193.274 11.172 193.478 11.19 193.67 11.226C193.862 11.25 194.048 11.286 194.228 11.334L193.22 15.384C193.1 15.3 192.908 15.222 192.644 15.15C192.392 15.078 192.116 15.042 191.816 15.042C191.6 15.042 191.402 15.078 191.222 15.15C191.054 15.21 190.91 15.306 190.79 15.438C190.682 15.57 190.598 15.726 190.538 15.906C190.478 16.086 190.448 16.296 190.448 16.536V21H186.794ZM201.863 15.24V8.4H204.725L206.831 11.604H205.823L207.929 8.4H210.719V15.24H207.983L208.181 10.506L209.675 9.57L206.903 14.016H205.715L202.835 9.426L204.419 10.506L204.635 15.24H201.863ZM196.661 15.24V8.832H199.541V15.24H196.661ZM195.275 10.812V8.4H200.945V10.812H195.275Z" fill="black"/>
<g clip-path="url(#clip0_559_296)">
<path d="M2.91622 6.00381C2.83075 6.01671 2.73683 6.0479 2.6387 6.09628C2.43398 6.19735 2.28941 6.37907 2.19866 6.64787C2.1649 6.74787 2.14062 6.89625 2.14062 7.0027C2.14062 7.17796 2.19972 7.41344 2.28625 7.57795C2.40338 7.80482 2.46247 7.88654 2.62498 8.05213C2.77482 8.20481 2.87612 8.27685 2.93838 8.27685C2.9922 8.27685 2.99748 8.2704 3.06923 8.12632C3.26234 7.73493 3.4449 7.49086 3.71504 7.25968C4.00101 7.0156 4.35029 6.85969 4.72912 6.80916C4.87896 6.78873 4.97604 6.78873 5.12589 6.80916C5.40025 6.84572 5.58914 6.91238 5.84978 7.06506C5.9954 7.15001 5.96585 7.15216 6.13997 7.04463C6.34574 6.91668 6.56312 6.84249 6.82587 6.80916C6.98205 6.78873 7.08968 6.78873 7.23319 6.80916C7.45901 6.84142 7.62891 6.89518 7.81252 6.99195C8.06788 7.12635 8.19451 7.22097 8.39395 7.42204C8.56279 7.59193 8.64088 7.69192 8.74535 7.86719C8.81921 7.99299 8.92579 8.20911 8.92579 8.23384C8.92579 8.2704 8.9585 8.28653 9.01338 8.27577C9.07458 8.26502 9.09146 8.25534 9.18432 8.18545C9.45446 7.98009 9.68767 7.63064 9.77948 7.29301C9.885 6.90808 9.79108 6.52315 9.52833 6.25542C9.41542 6.14037 9.28774 6.06833 9.11573 6.02102C9.0176 5.99521 8.72002 5.99521 8.60922 6.02209C8.3222 6.09198 8.15652 6.1909 7.90221 6.44251C7.84101 6.50272 7.77031 6.56508 7.74393 6.58121C7.68483 6.61669 7.68272 6.61562 7.39042 6.5253C7.3155 6.50164 7.22053 6.47476 7.17938 6.46616C7.09918 6.44681 7.04958 6.43498 6.96938 6.4167C6.86386 6.39197 6.6908 6.36616 6.39323 6.32853C6.24338 6.30918 5.69466 6.31025 5.55431 6.32853C5.26307 6.36831 5.22191 6.37477 4.98449 6.42315C4.85258 6.44896 4.53918 6.52745 4.41993 6.56293C4.38828 6.57261 4.33763 6.58551 4.30702 6.59196C4.23949 6.60594 4.22788 6.59841 4.08542 6.46401C3.79629 6.19198 3.62956 6.09198 3.34887 6.02317C3.27711 6.00596 2.99115 5.99306 2.91622 6.00381Z" fill="black"/>
<path d="M4.10919 8.165C4.08914 8.16822 4.00367 8.17682 3.91925 8.1865C3.83483 8.1951 3.71137 8.20908 3.64489 8.21768C3.57841 8.22629 3.48555 8.23811 3.43912 8.24349C3.39269 8.24994 3.30721 8.26177 3.24917 8.27145C3.19114 8.28112 3.11516 8.29295 3.08034 8.29833C3.04551 8.3037 3.01175 8.31553 3.00542 8.32521C2.98748 8.34994 2.97692 8.55208 2.99064 8.63165C3.01491 8.78003 3.0128 8.77573 3.06451 8.78433C3.23335 8.81121 3.284 8.82841 3.29033 8.86175C3.29349 8.87357 3.30088 8.93486 3.30721 8.99723C3.34415 9.33377 3.43384 9.61226 3.5763 9.83053C3.69765 10.0165 3.85277 10.1004 4.1303 10.1273C4.45003 10.1595 4.74655 10.0832 4.98082 9.91117C5.0589 9.85311 5.43668 9.4628 5.4905 9.38431C5.57386 9.26281 5.66989 9.05314 5.7237 8.87895C5.76169 8.75422 5.77013 8.74992 5.98224 8.74992C6.19117 8.74992 6.17745 8.74025 6.23655 8.93809C6.27137 9.05636 6.3579 9.24775 6.42544 9.35313C6.4898 9.4542 6.88974 9.86171 6.99632 9.93375C7.11556 10.0155 7.25485 10.0735 7.41736 10.1122C7.53871 10.1402 7.87111 10.1402 7.97663 10.1112C8.21512 10.0477 8.3639 9.9101 8.4747 9.64989C8.5549 9.46065 8.61399 9.25528 8.64143 9.06497C8.67309 8.84454 8.68364 8.82196 8.76278 8.80906C8.8968 8.78648 8.93162 8.77895 8.94006 8.76713C8.94534 8.76067 8.95484 8.70154 8.96222 8.63702C8.97594 8.50477 8.96328 8.34994 8.93584 8.31876C8.92423 8.30585 8.89047 8.30048 8.79127 8.2951C8.72057 8.29187 8.60555 8.27897 8.53591 8.26714C8.06422 8.18865 7.7888 8.16392 7.38042 8.16392C6.96783 8.16392 6.80954 8.18328 6.45182 8.2736L6.2566 8.32413L5.97063 8.32843C5.68994 8.33273 5.68149 8.33273 5.59074 8.30585C5.44196 8.26392 5.29422 8.23274 5.09584 8.20263C5.05574 8.19618 4.98926 8.18543 4.9481 8.17898C4.8774 8.16715 4.18517 8.1564 4.10919 8.165ZM4.65791 8.35209C4.95549 8.36607 5.11167 8.3908 5.11167 8.42735C5.11167 8.43273 5.10217 8.43918 5.09056 8.44348C5.05996 8.45316 4.97976 8.54885 4.90484 8.66605C4.84258 8.7639 4.80037 8.80368 4.76027 8.80368C4.73073 8.80368 4.48064 8.89293 4.40571 8.92949C4.21155 9.02626 4.09653 9.18001 3.87915 9.63484C3.838 9.72193 3.79579 9.79612 3.78735 9.79935C3.77785 9.80365 3.76413 9.79827 3.75463 9.78644C3.72403 9.74559 3.6565 9.59183 3.61851 9.4757C3.54359 9.24238 3.51509 9.05529 3.52037 8.82519C3.52354 8.68541 3.5267 8.6639 3.54886 8.61552C3.58157 8.54778 3.64911 8.47896 3.71559 8.44563C3.81056 8.39725 3.98784 8.36499 4.21999 8.35316C4.31285 8.34886 4.39411 8.34349 4.39938 8.34349C4.40571 8.34241 4.52179 8.34671 4.65791 8.35209ZM7.62207 8.36822C7.6284 8.37574 7.60308 8.4123 7.54821 8.47574C7.50178 8.52843 7.4353 8.61552 7.40047 8.66713C7.31605 8.79186 7.29706 8.80906 7.23058 8.82519C6.91929 8.8983 6.77155 9.00798 6.64176 9.26388C6.62276 9.30152 6.60271 9.32947 6.59638 9.32732C6.57211 9.31979 6.47292 9.0983 6.44548 8.99185C6.43071 8.93594 6.42649 8.87895 6.42649 8.77143C6.42649 8.57036 6.44337 8.5381 6.57633 8.47036C6.6903 8.41338 6.91612 8.36822 7.13772 8.35854C7.3055 8.35209 7.61152 8.35746 7.62207 8.36822Z" fill="black"/>
<path d="M9.04093 8.75746C9.02827 8.76929 9.03249 8.89509 9.04832 9.00046C9.12324 9.50259 9.11691 10.0219 9.03143 10.3413C9.01982 10.3854 9.00611 10.4359 9.00189 10.4542C8.95757 10.6337 8.8225 10.9208 8.67898 11.1434C8.51015 11.4058 8.33076 11.5864 8.0469 11.7821C7.96987 11.8348 7.5636 12.0842 7.40848 12.1745C7.26708 12.2563 7.15522 12.3315 7.15522 12.3444C7.15522 12.3541 7.20587 12.3573 7.3325 12.3584C7.58893 12.3595 7.724 12.3971 7.91077 12.5186C8.04795 12.6079 8.34236 12.8949 8.48271 13.0756C8.57979 13.2003 8.81194 13.5498 8.81194 13.5713C8.81194 13.5734 8.83516 13.6164 8.86471 13.667C8.99555 13.8992 9.15173 14.3143 9.20238 14.5616C9.2066 14.5852 9.21821 14.6433 9.22771 14.6906C9.31529 15.1239 9.28469 15.6153 9.14329 16.0884C8.99661 16.5798 8.76551 17.0335 8.3909 17.5711C8.10599 17.9797 7.90761 18.2195 7.58259 18.5507C7.30296 18.8356 7.12146 18.9861 6.84182 19.1614C6.67298 19.2668 6.4039 19.4001 6.24244 19.4571C6.06728 19.5194 5.95542 19.5216 5.78975 19.4646C5.61986 19.4076 5.43308 19.3227 5.28324 19.2367C5.24736 19.2162 5.19248 19.184 5.16083 19.1657C4.83793 18.9818 4.43694 18.6109 3.94625 18.0399C3.62968 17.67 3.311 17.1862 3.08834 16.7324C2.98177 16.5152 2.93006 16.3905 2.87308 16.212C2.77283 15.897 2.72429 15.6422 2.70213 15.3035C2.67047 14.8078 2.82137 14.1971 3.10945 13.6637C3.36482 13.1906 3.74892 12.7369 4.08554 12.5111C4.26493 12.3907 4.38417 12.3595 4.6617 12.3584C4.78938 12.3573 4.85481 12.353 4.85481 12.3455C4.85481 12.3401 4.82948 12.3208 4.79888 12.3025C4.76828 12.2853 4.6923 12.2423 4.63004 12.2068C4.4591 12.109 3.99268 11.8143 3.88188 11.7326C3.59591 11.523 3.41441 11.3326 3.24769 11.0638C3.05036 10.7456 2.94272 10.4305 2.89735 10.0391C2.86886 9.78968 2.88257 9.25744 2.92478 9.01659C2.93639 8.9467 2.94061 8.77359 2.93006 8.76284C2.91106 8.74348 2.88257 8.79079 2.84353 8.90692C2.80449 9.02412 2.72218 9.31013 2.70951 9.37357C2.70635 9.38862 2.69685 9.43378 2.68736 9.47571C2.64198 9.68108 2.61032 9.86495 2.5966 10.0069C2.55123 10.4854 2.6557 10.923 2.91106 11.3176C3.02609 11.4971 3.16432 11.6563 3.36693 11.8444C3.43341 11.9068 3.48933 11.9606 3.49144 11.9649C3.49461 11.9724 3.37642 12.124 3.28251 12.2315C3.25085 12.2692 3.13161 12.3874 3.0187 12.495C2.90579 12.6025 2.77388 12.7294 2.72534 12.7767C2.6768 12.824 2.63037 12.867 2.62193 12.8713C2.57867 12.896 2.15552 13.3799 2.03522 13.5401C1.84317 13.7981 1.58041 14.2562 1.48966 14.4884C1.47911 14.5164 1.45801 14.5669 1.44323 14.5992C1.36092 14.7841 1.20897 15.2852 1.17098 15.497C1.0644 16.0916 1.0739 16.4927 1.2058 16.8948C1.27862 17.1195 1.42213 17.3464 1.61524 17.5453C1.82101 17.7571 2.16923 17.9819 2.49636 18.1152C2.6251 18.1679 2.93217 18.2679 3.18754 18.341C3.35004 18.3872 3.67189 18.4603 3.91037 18.5066C3.9568 18.5152 4.05072 18.5324 4.12037 18.5464L4.24488 18.57L4.31136 18.6496C4.41267 18.7711 4.68703 19.1678 4.84531 19.4216C4.91812 19.5399 5.05741 19.8119 5.09962 19.9216C5.21148 20.2076 5.29801 20.5732 5.29801 20.7624C5.29801 20.8646 5.28535 20.8699 5.23786 20.7893C5.19037 20.7086 5.08274 20.6033 5.01309 20.5699C4.95084 20.5398 4.85164 20.5248 4.84004 20.5431C4.83581 20.5495 4.86325 20.585 4.89913 20.6226C4.97194 20.6968 5.02365 20.7861 5.05425 20.8904C5.10068 21.0463 5.11123 21.2678 5.0743 21.3043C5.05847 21.3205 5.0553 21.3183 5.0342 21.2764C5.00676 21.2215 4.93501 21.1409 4.89596 21.1194C4.86325 21.1022 4.81471 21.1 4.79255 21.114C4.77672 21.1248 4.77883 21.1538 4.80627 21.3086C4.83054 21.443 4.82526 21.586 4.79572 21.5957C4.78938 21.5979 4.75562 21.5549 4.71974 21.4989C4.68386 21.4441 4.6216 21.3667 4.5815 21.3269C4.50764 21.2538 4.40844 21.1957 4.37151 21.2033C4.34513 21.2086 4.35146 21.2699 4.39684 21.4226C4.44432 21.5839 4.44432 21.5839 4.41161 21.5796C4.35568 21.5742 4.15941 21.4796 4.01484 21.3893C3.82806 21.2721 3.72676 21.1828 3.51466 20.9473C3.38276 20.8033 3.26351 20.6183 3.16432 20.4087L3.09046 20.2538L3.00498 20.1968C2.68947 19.9882 2.29164 19.6076 2.03416 19.2711C1.62473 18.7334 1.38308 18.2464 1.22902 17.6453C1.18892 17.4883 1.17731 17.4539 1.16359 17.4453C1.13616 17.427 0.941995 17.6012 0.776323 17.7926C0.313074 18.3302 0.07037 18.8496 0.012332 19.4248C-0.0615345 20.1442 0.200164 20.9344 0.69718 21.5011C0.866018 21.6925 1.08762 21.8806 1.23535 21.9559L1.31449 21.9968H3.00604C4.86958 21.9968 4.73451 22.0022 4.79572 21.9312L4.82315 21.9H5.99341H7.16367L7.20904 21.9387C7.23437 21.9602 7.26497 21.9817 7.27763 21.986C7.29029 21.9914 8.06167 21.9957 8.99239 21.9978L10.685 22L10.7525 21.972C10.8644 21.9247 11.1018 21.7323 11.2485 21.5699C11.6685 21.1033 11.8806 20.6474 11.9882 19.9786C12.0061 19.8678 12.003 19.5313 11.9829 19.3893C11.9228 18.9603 11.7307 18.499 11.4564 18.1259C11.3012 17.9141 10.9942 17.5808 10.8612 17.4776C10.8095 17.4378 10.8042 17.4356 10.7884 17.4518C10.7789 17.4615 10.7684 17.4894 10.7631 17.5152C10.7388 17.6625 10.7198 17.7475 10.6871 17.8679C10.5562 18.3453 10.2133 18.9539 9.79753 19.4485C9.5696 19.7194 9.26992 19.9979 9.04937 20.1442C8.88264 20.2549 8.88581 20.2528 8.84677 20.3398C8.78662 20.4785 8.73913 20.5667 8.65682 20.6925C8.41095 21.0721 8.17036 21.2936 7.79364 21.4839C7.60581 21.5796 7.58998 21.585 7.58154 21.5624C7.57521 21.5463 7.59526 21.4581 7.63536 21.3194C7.67123 21.1947 7.66912 21.1817 7.60792 21.2022C7.46335 21.2484 7.3631 21.3377 7.28818 21.486C7.24703 21.5678 7.22803 21.5946 7.2101 21.5968C7.17211 21.6022 7.16367 21.5592 7.17 21.3839C7.17316 21.2979 7.17844 21.2 7.18266 21.1667C7.18794 21.1151 7.18583 21.1033 7.17211 21.0979C7.11512 21.0753 6.99799 21.1463 6.94945 21.2312C6.90513 21.3086 6.89141 21.3043 6.89141 21.2129C6.89141 21.1323 6.9083 21.0463 6.95156 20.9C6.98744 20.7775 7.02754 20.7 7.09085 20.6291C7.1605 20.5517 7.1605 20.5345 7.09508 20.5345C7.03176 20.5345 6.97478 20.5613 6.91041 20.6194C6.86187 20.6635 6.76373 20.7914 6.75107 20.8269C6.72047 20.9129 6.71097 20.671 6.73841 20.5259C6.8186 20.1087 6.90513 19.8603 7.08558 19.528C7.28502 19.1635 7.67018 18.6216 7.76621 18.5732C7.80208 18.555 7.89178 18.5345 8.16825 18.4808C8.56502 18.4034 8.82988 18.3431 8.96812 18.2991C9.00083 18.2883 9.07786 18.2636 9.13907 18.2442C9.35328 18.1786 9.56116 18.0937 9.75532 17.9948C9.9115 17.9152 9.98853 17.8657 10.1373 17.7528C10.6639 17.3539 10.8939 16.8711 10.8918 16.1744C10.8908 15.869 10.8485 15.5916 10.7377 15.1744C10.7114 15.0744 10.609 14.7669 10.57 14.6702C10.3705 14.1798 10.0941 13.7186 9.76271 13.325C9.64136 13.181 9.20238 12.7337 9.00716 12.5552C8.73175 12.3036 8.47532 12.0229 8.47427 11.9735C8.47427 11.9627 8.51859 11.9186 8.57768 11.8703C8.82039 11.6692 9.0652 11.3574 9.19711 11.0789C9.40182 10.6456 9.4377 10.195 9.31318 9.58324C9.28258 9.43163 9.19183 9.08433 9.1454 8.93917C9.09264 8.77681 9.06626 8.73058 9.04093 8.75746Z" fill="black"/>
<path d="M5.75684 9.59942C5.51308 9.62738 5.40017 9.68866 5.35269 9.81984C5.32103 9.90479 5.31997 10.0048 5.34952 10.0532C5.39068 10.1209 5.47615 10.137 5.53841 10.0876C5.55846 10.0725 5.58378 10.0618 5.5975 10.0639C5.61755 10.0671 5.62072 10.0736 5.61966 10.1102C5.61861 10.1338 5.61227 10.1811 5.60383 10.2155C5.58589 10.2929 5.59645 10.3166 5.67348 10.3757C5.73363 10.422 5.88347 10.5198 5.9394 10.5488C5.97528 10.5682 5.97739 10.5682 6.02065 10.5478C6.04387 10.5359 6.07552 10.5134 6.0903 10.4972C6.10507 10.4811 6.13567 10.4585 6.15889 10.4467C6.23592 10.4069 6.33089 10.3381 6.34144 10.3155C6.34672 10.3026 6.34883 10.251 6.34566 10.1994C6.33933 10.0671 6.3636 10.0435 6.44591 10.1005C6.49129 10.1317 6.54088 10.1306 6.5852 10.0962C6.62002 10.0704 6.62847 10.0317 6.61791 9.95317C6.59681 9.79941 6.505 9.69296 6.34883 9.64028C6.23592 9.60265 5.91724 9.58007 5.75684 9.59942Z" fill="black"/>
<path d="M5.94434 10.7745C5.87153 10.8821 5.7639 10.9562 5.59295 11.0143C5.51592 11.0412 5.48637 11.0455 5.38718 11.0455C5.27849 11.0455 5.26793 11.0433 5.21412 11.0132C5.17402 10.9907 5.14342 10.9616 5.11387 10.9197C5.0896 10.8853 5.06744 10.8573 5.06322 10.8573C5.04634 10.8573 5.05583 10.9132 5.0801 10.9627C5.11387 11.0304 5.19407 11.11 5.26477 11.1444C5.3724 11.1982 5.50114 11.1874 5.7354 11.1046C5.80505 11.0799 5.88947 11.0519 5.92218 11.0423C5.98866 11.0229 5.97916 11.0208 6.17333 11.0917C6.35905 11.1595 6.52894 11.1885 6.62497 11.1691C6.7421 11.1444 6.84446 11.0638 6.89933 10.9519C6.94365 10.8595 6.9236 10.8208 6.86873 10.896C6.80541 10.9821 6.73366 11.0251 6.62708 11.0401C6.42025 11.0691 6.1079 10.9347 6.02348 10.7799C5.99605 10.7305 5.97494 10.7283 5.94434 10.7745Z" fill="black"/>
<path d="M7.02285 11.0984C6.87723 11.3521 6.69151 11.5317 6.4889 11.6166C6.34856 11.6736 6.25148 11.6887 5.98661 11.6897C5.7323 11.6908 5.70803 11.6876 5.54341 11.6349C5.30493 11.5586 5.12448 11.4059 4.96725 11.1457C4.93243 11.0876 4.89761 11.0414 4.89128 11.0435C4.87123 11.05 4.86173 11.1328 4.85962 11.3252C4.8554 11.6682 4.90499 11.8403 5.07172 12.0693C5.10549 12.1155 5.16142 12.1768 5.19624 12.2069C5.23001 12.2359 5.26061 12.2628 5.26378 12.2661C5.26694 12.2693 5.32814 12.3198 5.40096 12.379C5.65632 12.5875 5.78506 12.7478 5.92224 13.0209C5.9539 13.0843 5.97184 13.1101 5.98556 13.1101C6.00033 13.1101 6.02355 13.0757 6.06998 12.9854C6.15967 12.8112 6.20821 12.7359 6.29685 12.6349C6.36861 12.551 6.51951 12.4166 6.66196 12.3091C6.76221 12.2327 6.92261 12.0639 6.9817 11.9704C7.08617 11.8091 7.13154 11.6306 7.13154 11.393C7.13154 11.2134 7.09989 11.0295 7.07034 11.0295C7.06612 11.0295 7.04396 11.0607 7.02285 11.0984Z" fill="black"/>
<path d="M5.90933 15.1605C5.87767 15.2272 5.84391 15.3057 5.83335 15.3358C5.8228 15.3648 5.81119 15.3939 5.80697 15.4003C5.80275 15.4057 5.79115 15.4347 5.78059 15.4648C5.73733 15.5852 5.72467 15.6003 5.63814 15.6326C5.59487 15.6487 5.51889 15.6745 5.4693 15.6906C5.10841 15.8067 4.74857 16.1368 4.56707 16.5175C4.4816 16.697 4.41406 16.9035 4.41406 16.9884C4.41406 17.0218 4.43306 17.0293 4.4415 16.9992C4.44466 16.9895 4.45627 16.9615 4.46788 16.9379C4.63461 16.5841 4.96384 16.2487 5.31523 16.0734C5.63497 15.9132 6.07922 15.8766 6.43167 15.9809C6.85377 16.1046 7.2632 16.4422 7.51962 16.8777C7.55339 16.9336 7.57977 16.9852 7.57977 16.9916C7.57977 16.9992 7.58716 17.011 7.5956 17.0185C7.65469 17.068 7.55444 16.7508 7.44153 16.5239C7.27481 16.1938 6.99728 15.9196 6.66699 15.7594C6.55725 15.7067 6.53298 15.6971 6.37153 15.6412C6.28394 15.6111 6.23962 15.5863 6.23962 15.567C6.23962 15.5627 6.2143 15.5035 6.18369 15.4369C6.15204 15.3691 6.1151 15.2874 6.10138 15.2562C6.04968 15.1358 5.99903 15.0455 5.9832 15.0423C5.97054 15.0401 5.95049 15.0713 5.90933 15.1605Z" fill="black"/>
</g>
<defs>
<clipPath id="clip0_559_296">
<rect width="12" height="16" fill="white" transform="translate(0 6)"/>
</clipPath>
</defs>
</svg>
